Coordinates
version=1
nRows=7
nColumns=63
inDegrees=yes

Units are S.I. units (second, meters, Newtons, ...)
If the header above contains a line with 'inDegrees', this indicates whether rotational values are in degrees (yes) or radians (no).

endheader
time	pelvis_tilt	pelvis_list	pelvis_rotation	pelvis_tx	pelvis_ty	pelvis_tz	hip_flexion_r	hip_adduction_r	hip_rotation_r	knee_angle_r	knee_angle_r_beta	ankle_angle_r	subtalar_angle_r	mtp_angle_r	hip_flexion_l	hip_adduction_l	hip_rotation_l	knee_angle_l	knee_angle_l_beta	ankle_angle_l	subtalar_angle_l	mtp_angle_l	L5_S1_Flex_Ext	L5_S1_Lat_Bending	L5_S1_axial_rotation	L4_L5_Flex_Ext	L4_L5_Lat_Bending	L4_L5_axial_rotation	L3_L4_Flex_Ext	L3_L4_Lat_Bending	L3_L4_axial_rotation	L2_L3_Flex_Ext	L2_L3_Lat_Bending	L2_L3_axial_rotation	L1_L2_Flex_Ext	L1_L2_Lat_Bending	L1_L2_axial_rotation	L1_T12_Flex_Ext	L1_T12_Lat_Bending	L1_T12_axial_rotation	Abs_r3	Abs_r2	Abs_r1	Abs_t1	Abs_t2	neck_flexion	neck_bending	neck_rotation	arm_flex_r	arm_add_r	arm_rot_r	elbow_flex_r	pro_sup_r	wrist_flex_r	wrist_dev_r	arm_flex_l	arm_add_l	arm_rot_l	elbow_flex_l	pro_sup_l	wrist_flex_l	wrist_dev_l
      3.12068966	      3.34846976	     -4.72407941	     90.37129166	      0.23061263	      0.91474079	      0.68254094	     12.54792363	     -0.16400372	    -13.31531443	     20.11221575	      0.35102438	     42.88522465	      9.01154876	      0.00000000	     13.15207240	      0.85744370	     11.14784327	     20.08464078	      0.35054311	     40.64872759	    -12.92973949	      0.00000000	     -0.09933545	      0.71378648	      0.82311204	     -0.18447587	      0.94933602	      0.87455654	     -0.16319821	      1.73550045	      0.87455654	     -0.11353049	      1.73550045	      0.72022303	     -0.09224290	      1.45555339	      0.66877853	     -0.05676028	      1.10565526	      0.61733403	     -0.70954319	      8.07449543	      4.57790221	      0.00000000	      0.00000000	     27.89349475	     -4.12516219	     10.16888708	      5.95408474	    -19.63496760	     54.91296448	     21.73664550	     42.82002245	     -9.45081288	     -1.19480848	     17.18467994	     -1.49597793	    164.89462082	      1.15986438	      1.89013590	     -1.48596337	    -12.19993677
      3.13793103	      3.53409329	     -4.65492540	     90.00194861	      0.23068772	      0.91479884	      0.68166607	     12.44628657	      0.05912972	    -13.25216078	     20.13299929	      0.35138713	     42.72557886	      9.04868695	      0.00000000	     12.81851447	      0.61060775	     11.14038443	     19.67501105	      0.34339372	     40.83230040	    -13.04464642	      0.00000000	     -0.11457539	      0.75362110	      0.83995176	     -0.21277797	      1.00231606	      0.89244875	     -0.18823592	      1.83235434	      0.89244875	     -0.13094822	      1.83235434	      0.73495779	     -0.10639471	      1.53678414	      0.68246081	     -0.06546838	      1.16735908	      0.62996382	     -0.81840059	      8.52511259	      4.67155972	      0.00000000	      0.00000000	     27.82076404	     -3.83866239	     10.18727846	      5.59567463	    -20.07300883	     56.09109656	     21.25954194	     43.72738387	     -9.17785552	     -0.67044520	     17.01803569	     -1.44372762	    164.64025340	      1.16442314	      1.77346352	     -1.45030419	    -12.33618601
      3.15517241	      3.45895412	     -4.64691484	     89.83058880	      0.23052994	      0.91483230	      0.68115701	     12.41222235	     -0.02293825	    -13.21833160	     20.13402981	      0.35140511	     42.62355171	      9.04855426	      0.00000000	     12.77729611	      0.68823287	     11.01166941	     19.63045604	      0.34261609	     40.93404101	    -13.14600129	      0.00000000	     -0.12825800	      0.76275233	      0.80615005	     -0.23818794	      1.01446059	      0.85653443	     -0.21071507	      1.85455600	      0.85653443	     -0.14658607	      1.85455600	      0.70538129	     -0.11910038	      1.55540454	      0.65499692	     -0.07328662	      1.18150335	      0.60461254	     -0.91613409	      8.62840686	      4.48356473	      0.00000000	      0.00000000	     27.79375835	     -3.77948152	     10.22515016	      5.23451956	    -20.38798460	     56.32595883	     21.01517188	     43.91249109	     -9.18966246	     -0.60841702	     16.99183955	     -1.47061252	    164.59488635	      1.25033128	      1.75234694	     -1.42641632	    -12.34682273
      3.17241379	      3.20480101	     -4.48889353	     88.78226176	      0.23205827	      0.91540898	      0.68046844	     12.27669913	     -0.00810644	    -12.03126588	     20.10465399	      0.35089241	     42.58132298	      8.76337427	      0.00000000	     12.08017254	      0.72772545	     10.50692768	     18.74062152	      0.32708555	     40.70410238	    -13.58684762	      0.00000000	     -0.17393900	      0.74589949	      0.79910815	     -0.32302211	      0.99204633	      0.84905241	     -0.28576438	      1.81358003	      0.84905241	     -0.19879488	      1.81358003	      0.69921963	     -0.16151975	      1.52103825	      0.64927537	     -0.09938874	      1.15539832	      0.59933111	     -1.24242887	      8.43776426	      4.44439978	      0.00000000	      0.00000000	     27.60533798	     -2.70294733	     11.92907174	      6.76864135	    -20.46590465	     63.53063456	     19.23695309	     51.17888774	     -9.87232702	     -1.15390483	     16.74215765	     -1.85510673	    161.74615556	      1.47240922	      1.73964531	     -0.99760533	    -12.58091086
      3.18965517	      3.09009988	     -4.43120601	     88.24966990	      0.23320834	      0.91564969	      0.67982255	     12.21520465	      0.09085186	    -11.14159995	     20.08872965	      0.35061447	     42.44863601	      8.23499709	      0.00000000	     11.77823882	      0.63207682	      9.73398440	     18.36150329	      0.32046869	     40.79174387	    -12.98893455	      0.00000000	     -0.18814677	      0.73341710	      0.81168433	     -0.34940736	      0.97544475	      0.86241460	     -0.30910632	      1.78323034	      0.86241460	     -0.21503294	      1.78323034	      0.71022379	     -0.17471309	      1.49558416	      0.65949352	     -0.10750706	      1.13606309	      0.60876325	     -1.34391354	      8.29656095	      4.51434476	      0.00000000	      0.00000000	     27.44677354	     -2.43820843	     12.44261162	      6.70272932	    -20.53627728	     63.33777941	     19.03714321	     55.37577376	    -10.19717916	     -0.78765578	     16.70058839	     -2.09727143	    160.55740619	      1.68327277	      1.68832981	     -0.89382436	    -12.71508826
      3.20689655	      1.38973445	     -4.46569797	     87.38413795	      0.23834734	      0.91469161	      0.67920075	     12.80778529	     -1.08579608	     -8.71790641	     20.93279357	      0.36534617	     42.99606917	      6.45978418	      0.00000000	     11.38693301	      1.94619039	      8.80866995	     17.56519895	      0.30657056	     40.28851455	    -12.98855805	      0.00000000	     -0.18990938	      0.45127965	      0.90524976	     -0.35268071	      0.60020194	      0.96182787	     -0.31200212	      1.09724135	      0.96182787	     -0.21704743	      1.09724135	      0.79209354	     -0.17634985	      0.92024947	      0.73551543	     -0.10851422	      0.69903218	      0.67893732	     -1.35650370	      5.10496568	      5.03472757	      0.00000000	      0.00000000	     27.43920261	     -1.09886849	     11.49985042	      9.92360079	    -13.60765460	    147.98962264	      1.13617404	      2.04275082	     -4.19867623	     -7.07086637	     12.49285887	    -11.93595693	     64.28727415	     25.52470927	     75.79579565	     -8.86863277	      1.14026890
      3.22413793	      1.18572400	     -4.27497031	     86.62617908	      0.23996536	      0.91479488	      0.67863815	     12.82737153	     -0.94666851	     -7.03469973	     21.22354502	      0.37042074	     42.93781768	      5.30295778	      0.00000000	     10.90691036	      1.93480241	      7.95221168	     17.17185625	      0.29970543	     40.06252388	    -12.80073481	      0.00000000	     -0.21547033	      0.41602942	      1.01524738	     -0.40014995	      0.55331914	      1.07870035	     -0.35399620	      1.01153394	      1.07870035	     -0.24626104	      1.01153394	      0.88834146	     -0.20008575	      0.84836720	      0.82488850	     -0.12311975	      0.64442958	      0.76143554	     -1.53908301	      4.70620806	      5.64650138	      0.00000000	      0.00000000	     27.32265320	     -1.31759082	     11.40690869	      9.70613927	    -13.52843199	    147.70333850	      1.19688201	      1.92527062	     -4.13349067	     -7.03724052	     12.67794821	    -12.09200277	     65.08922907	     25.21840851	     73.50184320	     -9.08543931	      0.46901387
